<?xml version="1.0" standalone="no"?><svg xmlns:xlink="http://www.w3.org/1999/xlink" xmlns="http://www.w3.org/2000/svg" viewBox="0 0 1000 545.4542596519467" preserveAspectRatio="xMaxYMax slice"><g transform="scale(1.5719142929450913)"><rect x="0" y="0" width="694" height="347" fill="#fcfcfc"/><circle cx="28.915" cy="28.915" r="5.785" fill="#fef8f9"/><circle cx="86.755" cy="28.915" r="5.785" fill="#95b4b4"/><circle cx="144.585" cy="28.915" r="5.785" fill="#fff6f8"/><circle cx="202.415" cy="28.915" r="5.785" fill="#9ebaba"/><circle cx="260.255" cy="28.915" r="5.785" fill="#fef7f9"/><circle cx="318.08500000000004" cy="28.915" r="5.785" fill="#c7d6d6"/><circle cx="375.915" cy="28.915" r="5.785" fill="#f7f8f8"/><circle cx="433.75500000000005" cy="28.915" r="5.785" fill="#fafbfb"/><circle cx="491.58500000000004" cy="28.915" r="5.785" fill="#fdfafb"/><circle cx="549.415" cy="28.915" r="5.785" fill="#487d7d"/><circle cx="607.255" cy="28.915" r="5.785" fill="#fcfbfb"/><circle cx="665.0849999999999" cy="28.915" r="5.785" fill="#fef7f8"/><circle cx="28.915" cy="86.755" r="5.785" fill="#fdfafb"/><circle cx="86.755" cy="86.755" r="5.785" fill="#4d8181"/><circle cx="144.585" cy="86.755" r="5.785" fill="#fef7f9"/><circle cx="202.415" cy="86.755" r="5.785" fill="#f9fafa"/><circle cx="260.255" cy="86.755" r="5.785" fill="#fdf9fa"/><circle cx="318.08500000000004" cy="86.755" r="5.785" fill="#fef8f9"/><circle cx="375.915" cy="86.755" r="5.785" fill="#fdfafa"/><circle cx="433.75500000000005" cy="86.755" r="5.785" fill="#91b1b1"/><circle cx="491.58500000000004" cy="86.755" r="5.785" fill="#fef8f9"/><circle cx="549.415" cy="86.755" r="5.785" fill="#fff6f7"/><circle cx="607.255" cy="86.755" r="5.785" fill="#fdfafa"/><circle cx="665.0849999999999" cy="86.755" r="5.785" fill="#a5bfbf"/><circle cx="28.915" cy="144.585" r="5.785" fill="#fcfcfc"/><circle cx="86.755" cy="144.585" r="5.785" fill="#fcfbfb"/><circle cx="144.585" cy="144.585" r="5.785" fill="#adc5c5"/><circle cx="202.415" cy="144.585" r="5.785" fill="#fdfafb"/><circle cx="260.255" cy="144.585" r="5.785" fill="#fef8f9"/><circle cx="318.08500000000004" cy="144.585" r="5.785" fill="#387272"/><circle cx="375.915" cy="144.585" r="5.785" fill="#709a9a"/><circle cx="433.75500000000005" cy="144.585" r="5.785" fill="#fdfafb"/><circle cx="491.58500000000004" cy="144.585" r="5.785" fill="#fdf9fa"/><circle cx="549.415" cy="144.585" r="5.785" fill="#789f9f"/><circle cx="607.255" cy="144.585" r="5.785" fill="#9fbbbb"/><circle cx="665.0849999999999" cy="144.585" r="5.785" fill="#437a7a"/><circle cx="28.915" cy="202.415" r="5.785" fill="#6a9595"/><circle cx="86.755" cy="202.415" r="5.785" fill="#f0f3f3"/><circle cx="144.585" cy="202.415" r="5.785" fill="#fdfafb"/><circle cx="202.415" cy="202.415" r="5.785" fill="#bed0d0"/><circle cx="260.255" cy="202.415" r="5.785" fill="#fef6f8"/><circle cx="318.08500000000004" cy="202.415" r="5.785" fill="#487e7e"/><circle cx="375.915" cy="202.415" r="5.785" fill="#6a9595"/><circle cx="433.75500000000005" cy="202.415" r="5.785" fill="#fcfbfb"/><circle cx="491.58500000000004" cy="202.415" r="5.785" fill="#90b0b0"/><circle cx="549.415" cy="202.415" r="5.785" fill="#629090"/><circle cx="607.255" cy="202.415" r="5.785" fill="#fcfcfc"/><circle cx="665.0849999999999" cy="202.415" r="5.785" fill="#ecf1f1"/><circle cx="28.915" cy="260.255" r="5.785" fill="#fef8f9"/><circle cx="86.755" cy="260.255" r="5.785" fill="#fff6f8"/><circle cx="144.585" cy="260.255" r="5.785" fill="#94b3b3"/><circle cx="202.415" cy="260.255" r="5.785" fill="#457c7c"/><circle cx="260.255" cy="260.255" r="5.785" fill="#7ea3a3"/><circle cx="318.08500000000004" cy="260.255" r="5.785" fill="#9cb9b9"/><circle cx="375.915" cy="260.255" r="5.785" fill="#edf2f2"/><circle cx="433.75500000000005" cy="260.255" r="5.785" fill="#3e7777"/><circle cx="491.58500000000004" cy="260.255" r="5.785" fill="#fafafa"/><circle cx="549.415" cy="260.255" r="5.785" fill="#fdfafb"/><circle cx="607.255" cy="260.255" r="5.785" fill="#fff5f7"/><circle cx="665.0849999999999" cy="260.255" r="5.785" fill="#7ba2a2"/><circle cx="28.915" cy="318.08500000000004" r="5.785" fill="#fef6f8"/><circle cx="86.755" cy="318.08500000000004" r="5.785" fill="#fff6f8"/><circle cx="144.585" cy="318.08500000000004" r="5.785" fill="#fdfafb"/><circle cx="202.415" cy="318.08500000000004" r="5.785" fill="#679494"/><circle cx="260.255" cy="318.08500000000004" r="5.785" fill="#a3bebe"/><circle cx="318.08500000000004" cy="318.08500000000004" r="5.785" fill="#edf2f2"/><circle cx="375.915" cy="318.08500000000004" r="5.785" fill="#fdf9fa"/><circle cx="433.75500000000005" cy="318.08500000000004" r="5.785" fill="#d7e2e2"/><circle cx="491.58500000000004" cy="318.08500000000004" r="5.785" fill="#b5caca"/><circle cx="549.415" cy="318.08500000000004" r="5.785" fill="#fef6f8"/><circle cx="607.255" cy="318.08500000000004" r="5.785" fill="#c3d4d4"/><circle cx="665.0849999999999" cy="318.08500000000004" r="5.785" fill="#fef6f8"/></g></svg>