<?xml version="1.0" standalone="no"?><svg xmlns:xlink="http://www.w3.org/1999/xlink" xmlns="http://www.w3.org/2000/svg" viewBox="0 0 1000 545.4542596519467" preserveAspectRatio="xMaxYMax slice"><g transform="scale(1.5719142929450913)"><rect x="0" y="0" width="694" height="347" fill="#fcfcfc"/><circle cx="28.915" cy="28.915" r="5.785" fill="#e7eded"/><circle cx="86.755" cy="28.915" r="5.785" fill="#e1e9e9"/><circle cx="144.585" cy="28.915" r="5.785" fill="#fef8f9"/><circle cx="202.415" cy="28.915" r="5.785" fill="#e8eeee"/><circle cx="260.255" cy="28.915" r="5.785" fill="#fef7f9"/><circle cx="318.08500000000004" cy="28.915" r="5.785" fill="#fef8f9"/><circle cx="375.915" cy="28.915" r="5.785" fill="#fff6f8"/><circle cx="433.75500000000005" cy="28.915" r="5.785" fill="#fff6f8"/><circle cx="491.58500000000004" cy="28.915" r="5.785" fill="#fdfafa"/><circle cx="549.415" cy="28.915" r="5.785" fill="#fff6f8"/><circle cx="607.255" cy="28.915" r="5.785" fill="#779e9e"/><circle cx="665.0849999999999" cy="28.915" r="5.785" fill="#fdfbfb"/><circle cx="28.915" cy="86.755" r="5.785" fill="#e1e9e9"/><circle cx="86.755" cy="86.755" r="5.785" fill="#d5e0e0"/><circle cx="144.585" cy="86.755" r="5.785" fill="#588989"/><circle cx="202.415" cy="86.755" r="5.785" fill="#fef7f9"/><circle cx="260.255" cy="86.755" r="5.785" fill="#dae4e4"/><circle cx="318.08500000000004" cy="86.755" r="5.785" fill="#8badad"/><circle cx="375.915" cy="86.755" r="5.785" fill="#fef7f8"/><circle cx="433.75500000000005" cy="86.755" r="5.785" fill="#8eafaf"/><circle cx="491.58500000000004" cy="86.755" r="5.785" fill="#457c7c"/><circle cx="549.415" cy="86.755" r="5.785" fill="#86a9a9"/><circle cx="607.255" cy="86.755" r="5.785" fill="#649191"/><circle cx="665.0849999999999" cy="86.755" r="5.785" fill="#d7e2e2"/><circle cx="28.915" cy="144.585" r="5.785" fill="#fef6f8"/><circle cx="86.755" cy="144.585" r="5.785" fill="#fdf9fa"/><circle cx="144.585" cy="144.585" r="5.785" fill="#fef7f8"/><circle cx="202.415" cy="144.585" r="5.785" fill="#fcfbfb"/><circle cx="260.255" cy="144.585" r="5.785" fill="#a2bdbd"/><circle cx="318.08500000000004" cy="144.585" r="5.785" fill="#b4c9c9"/><circle cx="375.915" cy="144.585" r="5.785" fill="#dae4e4"/><circle cx="433.75500000000005" cy="144.585" r="5.785" fill="#fcfcfc"/><circle cx="491.58500000000004" cy="144.585" r="5.785" fill="#fdf9fa"/><circle cx="549.415" cy="144.585" r="5.785" fill="#538686"/><circle cx="607.255" cy="144.585" r="5.785" fill="#fef7f8"/><circle cx="665.0849999999999" cy="144.585" r="5.785" fill="#8daeae"/><circle cx="28.915" cy="202.415" r="5.785" fill="#ecf1f1"/><circle cx="86.755" cy="202.415" r="5.785" fill="#fef8f9"/><circle cx="144.585" cy="202.415" r="5.785" fill="#80a5a5"/><circle cx="202.415" cy="202.415" r="5.785" fill="#fef7f9"/><circle cx="260.255" cy="202.415" r="5.785" fill="#7ca2a2"/><circle cx="318.08500000000004" cy="202.415" r="5.785" fill="#fdfafb"/><circle cx="375.915" cy="202.415" r="5.785" fill="#c3d4d4"/><circle cx="433.75500000000005" cy="202.415" r="5.785" fill="#fef7f9"/><circle cx="491.58500000000004" cy="202.415" r="5.785" fill="#fff6f8"/><circle cx="549.415" cy="202.415" r="5.785" fill="#95b4b4"/><circle cx="607.255" cy="202.415" r="5.785" fill="#88aaaa"/><circle cx="665.0849999999999" cy="202.415" r="5.785" fill="#fdfafa"/><circle cx="28.915" cy="260.255" r="5.785" fill="#fdfafb"/><circle cx="86.755" cy="260.255" r="5.785" fill="#719a9a"/><circle cx="144.585" cy="260.255" r="5.785" fill="#fdf9fa"/><circle cx="202.415" cy="260.255" r="5.785" fill="#fef7f9"/><circle cx="260.255" cy="260.255" r="5.785" fill="#fdfafa"/><circle cx="318.08500000000004" cy="260.255" r="5.785" fill="#568787"/><circle cx="375.915" cy="260.255" r="5.785" fill="#d3dfdf"/><circle cx="433.75500000000005" cy="260.255" r="5.785" fill="#fff5f7"/><circle cx="491.58500000000004" cy="260.255" r="5.785" fill="#fef7f8"/><circle cx="549.415" cy="260.255" r="5.785" fill="#fcfcfc"/><circle cx="607.255" cy="260.255" r="5.785" fill="#c8d7d7"/><circle cx="665.0849999999999" cy="260.255" r="5.785" fill="#e5ecec"/><circle cx="28.915" cy="318.08500000000004" r="5.785" fill="#fef8f9"/><circle cx="86.755" cy="318.08500000000004" r="5.785" fill="#ebf0f0"/><circle cx="144.585" cy="318.08500000000004" r="5.785" fill="#689494"/><circle cx="202.415" cy="318.08500000000004" r="5.785" fill="#dee7e7"/><circle cx="260.255" cy="318.08500000000004" r="5.785" fill="#fcfcfc"/><circle cx="318.08500000000004" cy="318.08500000000004" r="5.785" fill="#367171"/><circle cx="375.915" cy="318.08500000000004" r="5.785" fill="#749d9d"/><circle cx="433.75500000000005" cy="318.08500000000004" r="5.785" fill="#a6bfbf"/><circle cx="491.58500000000004" cy="318.08500000000004" r="5.785" fill="#fdfbfb"/><circle cx="549.415" cy="318.08500000000004" r="5.785" fill="#cfdcdc"/><circle cx="607.255" cy="318.08500000000004" r="5.785" fill="#fdfafa"/><circle cx="665.0849999999999" cy="318.08500000000004" r="5.785" fill="#adc4c4"/></g></svg>