<?xml version="1.0" standalone="no"?><svg xmlns:xlink="http://www.w3.org/1999/xlink" xmlns="http://www.w3.org/2000/svg" viewBox="0 0 1000 545.4542596519467" preserveAspectRatio="xMaxYMax slice"><g transform="scale(1.5719142929450913)"><rect x="0" y="0" width="694" height="347" fill="#b0b0b0"/><path d="M 347 115.66 A 57.83 57.83 0 0 1  404.83 57.83 L 347 115.66 A 57.83 57.83 0 0 0 404.83 57.83" fill="#749090"/><rect x="57.833333333333336" y="115.66666666666667" width="57.833333333333336" height="57.833333333333336" fill="#b0b0b0"/><path d="M 86.75 115.67 A 28.92 28.92 0 0 1  115.67 144.59 L 86.75 115.67 A 28.92 28.92 0 0 0 115.67 144.59" fill="#e6dfe0"/><path d="M 57.83 173.5 A 28.92 28.92 0 0 1  86.75 144.58 L 57.83 173.5 A 28.92 28.92 0 0 0 86.75 144.58" fill="#b9b8b8"/><path d="M 231.33 115.67 A 57.83 57.83 0 0 1  289.16 173.5 L 231.33 115.67 A 57.83 57.83 0 0 0 289.16 173.5" fill="#5c8484"/><path d="M 462.67 115.67 A 57.83 57.83 0 0 1  520.5 173.5 L 462.67 115.67 A 57.83 57.83 0 0 0 520.5 173.5" fill="#e3ddde"/><rect x="578.3333333333334" y="115.66666666666667" width="57.833333333333336" height="57.833333333333336" fill="#b0b0b0"/><path d="M 607.25 115.67 A 28.92 28.92 0 0 1  636.17 144.59 L 607.25 115.67 A 28.92 28.92 0 0 0 636.17 144.59" fill="#e5dee0"/><path d="M 0 173.5 A 57.83 57.83 0 0 1  57.83 231.32999999999998 L 0 173.5 A 57.83 57.83 0 0 0 57.83 231.32999999999998" fill="#859999"/><path d="M 57.83 173.5 A 57.83 57.83 0 0 1  115.66 231.32999999999998 L 57.83 173.5 A 57.83 57.83 0 0 0 115.66 231.32999999999998" fill="#5b8383"/><rect x="173.5" y="173.5" width="57.833333333333336" height="57.833333333333336" fill="#b0b0b0"/><path d="M 202.42 173.5 A 28.92 28.92 0 0 1  231.33999999999997 202.42000000000002 L 202.42 173.5 A 28.92 28.92 0 0 0 231.33999999999997 202.42000000000002" fill="#467878"/><path d="M 173.5 231.33999999999997 A 28.92 28.92 0 0 1  202.42000000000002 202.42 L 173.5 231.33999999999997 A 28.92 28.92 0 0 0 202.42000000000002 202.42" fill="#c3c1c1"/><path d="M 202.42 202.42 A 28.92 28.92 0 0 1  231.33999999999997 231.33999999999997 L 202.42 202.42 A 28.92 28.92 0 0 0 231.33999999999997 231.33999999999997" fill="#bdbbbb"/><rect x="289.1666666666667" y="173.5" width="57.833333333333336" height="57.833333333333336" fill="#b0b0b0"/><path d="M 578.33 173.5 A 57.83 57.83 0 0 1  636.1600000000001 231.32999999999998 L 578.33 173.5 A 57.83 57.83 0 0 0 636.1600000000001 231.32999999999998" fill="#c0bebe"/><path d="M 636.17 173.5 A 57.83 57.83 0 0 1  694 231.32999999999998 L 636.17 173.5 A 57.83 57.83 0 0 0 694 231.32999999999998" fill="#ede5e7"/><path d="M 0 231.33 A 57.83 57.83 0 0 1  57.83 289.16 L 0 231.33 A 57.83 57.83 0 0 0 57.83 289.16" fill="#cac7c8"/><path d="M 57.83 231.33 A 57.83 57.83 0 0 1  115.66 289.16 L 57.83 231.33 A 57.83 57.83 0 0 0 115.66 289.16" fill="#6f8e8e"/><rect x="115.66666666666667" y="231.33333333333334" width="57.833333333333336" height="57.833333333333336" fill="#b0b0b0"/><path d="M 115.67 231.33 A 28.92 28.92 0 0 1  144.59 260.25 L 115.67 231.33 A 28.92 28.92 0 0 0 144.59 260.25" fill="#5f8585"/><path d="M 115.67 289.17 A 28.92 28.92 0 0 1  144.59 260.25 L 115.67 289.17 A 28.92 28.92 0 0 0 144.59 260.25" fill="#799393"/><path d="M 144.58 260.25 A 28.92 28.92 0 0 1  173.5 289.17 L 144.58 260.25 A 28.92 28.92 0 0 0 173.5 289.17" fill="#889b9b"/><rect x="173.5" y="231.33333333333334" width="57.833333333333336" height="57.833333333333336" fill="#b0b0b0"/><path d="M 202.42 260.25 A 28.92 28.92 0 0 1  231.33999999999997 231.33 L 202.42 260.25 A 28.92 28.92 0 0 0 231.33999999999997 231.33" fill="#f7eef0"/><path d="M 173.5 260.25 A 28.92 28.92 0 0 1  202.42000000000002 289.17 L 173.5 260.25 A 28.92 28.92 0 0 0 202.42000000000002 289.17" fill="#728f8f"/><path d="M 202.42 289.17 A 28.92 28.92 0 0 1  231.33999999999997 260.25 L 202.42 289.17 A 28.92 28.92 0 0 0 231.33999999999997 260.25" fill="#a0a7a7"/><rect x="231.33333333333334" y="231.33333333333334" width="57.833333333333336" height="57.833333333333336" fill="#b0b0b0"/><path d="M 231.33 231.33 A 28.92 28.92 0 0 1  260.25 260.25 L 231.33 231.33 A 28.92 28.92 0 0 0 260.25 260.25" fill="#b8b7b7"/><path d="M 260.25 231.33 A 28.92 28.92 0 0 1  289.17 260.25 L 260.25 231.33 A 28.92 28.92 0 0 0 289.17 260.25" fill="#95a2a2"/><path d="M 231.33 289.17 A 28.92 28.92 0 0 1  260.25 260.25 L 231.33 289.17 A 28.92 28.92 0 0 0 260.25 260.25" fill="#b9b8b8"/><rect x="289.1666666666667" y="231.33333333333334" width="57.833333333333336" height="57.833333333333336" fill="#b0b0b0"/><path d="M 318.08 231.33 A 28.92 28.92 0 0 1  347 260.25 L 318.08 231.33 A 28.92 28.92 0 0 0 347 260.25" fill="#d8d3d4"/><path d="M 318.08 289.17 A 28.92 28.92 0 0 1  347 260.25 L 318.08 289.17 A 28.92 28.92 0 0 0 347 260.25" fill="#4b7b7b"/><rect x="404.83333333333337" y="231.33333333333334" width="57.833333333333336" height="57.833333333333336" fill="#b0b0b0"/><path d="M 404.83 231.33 A 28.92 28.92 0 0 1  433.75 260.25 L 404.83 231.33 A 28.92 28.92 0 0 0 433.75 260.25" fill="#c1bfbf"/><path d="M 433.75 260.25 A 28.92 28.92 0 0 1  462.67 231.33 L 433.75 260.25 A 28.92 28.92 0 0 0 462.67 231.33" fill="#a8acac"/><path d="M 404.83 289.17 A 28.92 28.92 0 0 1  433.75 260.25 L 404.83 289.17 A 28.92 28.92 0 0 0 433.75 260.25" fill="#eee6e8"/><path d="M 433.75 260.25 A 28.92 28.92 0 0 1  462.67 289.17 L 433.75 260.25 A 28.92 28.92 0 0 0 462.67 289.17" fill="#3c7373"/><rect x="462.6666666666667" y="231.33333333333334" width="57.833333333333336" height="57.833333333333336" fill="#b0b0b0"/><path d="M 462.67 231.33 A 28.92 28.92 0 0 1  491.59000000000003 260.25 L 462.67 231.33 A 28.92 28.92 0 0 0 491.59000000000003 260.25" fill="#c0bebf"/><path d="M 462.67 260.25 A 28.92 28.92 0 0 1  491.59000000000003 289.17 L 462.67 260.25 A 28.92 28.92 0 0 0 491.59000000000003 289.17" fill="#cac7c7"/><path d="M 491.58 289.17 A 28.92 28.92 0 0 1  520.5 260.25 L 491.58 289.17 A 28.92 28.92 0 0 0 520.5 260.25" fill="#8a9c9c"/><path d="M 520.5 289.16 A 57.83 57.83 0 0 1  578.33 231.33 L 520.5 289.16 A 57.83 57.83 0 0 0 578.33 231.33" fill="#a5aaaa"/><path d="M 578.33 289.16 A 57.83 57.83 0 0 1  636.1600000000001 231.33 L 578.33 289.16 A 57.83 57.83 0 0 0 636.1600000000001 231.33" fill="#f5ecee"/><rect x="636.1666666666667" y="231.33333333333334" width="57.833333333333336" height="57.833333333333336" fill="#b0b0b0"/><path d="M 636.17 231.33 A 28.92 28.92 0 0 1  665.0899999999999 260.25 L 636.17 231.33 A 28.92 28.92 0 0 0 665.0899999999999 260.25" fill="#728f8f"/><path d="M 665.08 260.25 A 28.92 28.92 0 0 1  694 231.33 L 665.08 260.25 A 28.92 28.92 0 0 0 694 231.33" fill="#b3b3b3"/><path d="M 665.08 260.25 A 28.92 28.92 0 0 1  694 289.17 L 665.08 260.25 A 28.92 28.92 0 0 0 694 289.17" fill="#668989"/><path d="M 0 347 A 57.83 57.83 0 0 1  57.83 289.17 L 0 347 A 57.83 57.83 0 0 0 57.83 289.17" fill="#4d7c7c"/><path d="M 57.83 347 A 57.83 57.83 0 0 1  115.66 289.17 L 57.83 347 A 57.83 57.83 0 0 0 115.66 289.17" fill="#658888"/><path d="M 115.67 289.17 A 57.83 57.83 0 0 1  173.5 347 L 115.67 289.17 A 57.83 57.83 0 0 0 173.5 347" fill="#f0e8ea"/><path d="M 173.5 347 A 57.83 57.83 0 0 1  231.32999999999998 289.17 L 173.5 347 A 57.83 57.83 0 0 0 231.32999999999998 289.17" fill="#ccc9c9"/><rect x="231.33333333333334" y="289.1666666666667" width="57.833333333333336" height="57.833333333333336" fill="#b0b0b0"/><path d="M 231.33 318.09000000000003 A 28.92 28.92 0 0 1  260.25 289.17 L 231.33 318.09000000000003 A 28.92 28.92 0 0 0 260.25 289.17" fill="#fdf3f5"/><path d="M 260.25 289.17 A 28.92 28.92 0 0 1  289.17 318.09000000000003 L 260.25 289.17 A 28.92 28.92 0 0 0 289.17 318.09000000000003" fill="#b0b0b0"/><path d="M 231.33 347 A 28.92 28.92 0 0 1  260.25 318.08 L 231.33 347 A 28.92 28.92 0 0 0 260.25 318.08" fill="#4e7d7d"/><path d="M 260.25 347 A 28.92 28.92 0 0 1  289.17 318.08 L 260.25 347 A 28.92 28.92 0 0 0 289.17 318.08" fill="#8c9d9d"/><rect x="289.1666666666667" y="289.1666666666667" width="57.833333333333336" height="57.833333333333336" fill="#b0b0b0"/><path d="M 289.17 318.09000000000003 A 28.92 28.92 0 0 1  318.09000000000003 289.17 L 289.17 318.09000000000003 A 28.92 28.92 0 0 0 318.09000000000003 289.17" fill="#467878"/><path d="M 318.08 318.09000000000003 A 28.92 28.92 0 0 1  347 289.17 L 318.08 318.09000000000003 A 28.92 28.92 0 0 0 347 289.17" fill="#497a7a"/><path d="M 289.17 318.08 A 28.92 28.92 0 0 1  318.09000000000003 347 L 289.17 318.08 A 28.92 28.92 0 0 0 318.09000000000003 347" fill="#5d8484"/><path d="M 318.08 347 A 28.92 28.92 0 0 1  347 318.08 L 318.08 347 A 28.92 28.92 0 0 0 347 318.08" fill="#799393"/><rect x="347" y="289.1666666666667" width="57.833333333333336" height="57.833333333333336" fill="#b0b0b0"/><path d="M 347 289.17 A 28.92 28.92 0 0 1  375.92 318.09000000000003 L 347 289.17 A 28.92 28.92 0 0 0 375.92 318.09000000000003" fill="#4d7c7c"/><path d="M 375.92 289.17 A 28.92 28.92 0 0 1  404.84000000000003 318.09000000000003 L 375.92 289.17 A 28.92 28.92 0 0 0 404.84000000000003 318.09000000000003" fill="#e5dee0"/><path d="M 347 347 A 28.92 28.92 0 0 1  375.92 318.08 L 347 347 A 28.92 28.92 0 0 0 375.92 318.08" fill="#e8e1e2"/><path d="M 375.92 347 A 28.92 28.92 0 0 1  404.84000000000003 318.08 L 375.92 347 A 28.92 28.92 0 0 0 404.84000000000003 318.08" fill="#5e8585"/><path d="M 404.83 347 A 57.83 57.83 0 0 1  462.65999999999997 289.17 L 404.83 347 A 57.83 57.83 0 0 0 462.65999999999997 289.17" fill="#ccc9c9"/><rect x="462.6666666666667" y="289.1666666666667" width="57.833333333333336" height="57.833333333333336" fill="#b0b0b0"/><path d="M 462.67 318.09000000000003 A 28.92 28.92 0 0 1  491.59000000000003 289.17 L 462.67 318.09000000000003 A 28.92 28.92 0 0 0 491.59000000000003 289.17" fill="#fbf1f3"/><path d="M 491.58 289.17 A 28.92 28.92 0 0 1  520.5 318.09000000000003 L 491.58 289.17 A 28.92 28.92 0 0 0 520.5 318.09000000000003" fill="#c5c3c3"/><path d="M 462.67 318.08 A 28.92 28.92 0 0 1  491.59000000000003 347 L 462.67 318.08 A 28.92 28.92 0 0 0 491.59000000000003 347" fill="#bbb9ba"/><path d="M 491.58 318.08 A 28.92 28.92 0 0 1  520.5 347 L 491.58 318.08 A 28.92 28.92 0 0 0 520.5 347" fill="#306d6d"/><path d="M 520.5 289.17 A 57.83 57.83 0 0 1  578.33 347 L 520.5 289.17 A 57.83 57.83 0 0 0 578.33 347" fill="#e1dbdc"/><rect x="578.3333333333334" y="289.1666666666667" width="57.833333333333336" height="57.833333333333336" fill="#b0b0b0"/><path d="M 578.33 318.09000000000003 A 28.92 28.92 0 0 1  607.25 289.17 L 578.33 318.09000000000003 A 28.92 28.92 0 0 0 607.25 289.17" fill="#829898"/><path d="M 607.25 318.09000000000003 A 28.92 28.92 0 0 1  636.17 289.17 L 607.25 318.09000000000003 A 28.92 28.92 0 0 0 636.17 289.17" fill="#93a1a1"/><path d="M 578.33 347 A 28.92 28.92 0 0 1  607.25 318.08 L 578.33 347 A 28.92 28.92 0 0 0 607.25 318.08" fill="#d1cccd"/><path d="M 607.25 318.08 A 28.92 28.92 0 0 1  636.17 347 L 607.25 318.08 A 28.92 28.92 0 0 0 636.17 347" fill="#909f9f"/><rect x="636.1666666666667" y="289.1666666666667" width="57.833333333333336" height="57.833333333333336" fill="#b0b0b0"/><path d="M 636.17 318.09000000000003 A 28.92 28.92 0 0 1  665.0899999999999 289.17 L 636.17 318.09000000000003 A 28.92 28.92 0 0 0 665.0899999999999 289.17" fill="#e7e0e1"/><path d="M 665.08 289.17 A 28.92 28.92 0 0 1  694 318.09000000000003 L 665.08 289.17 A 28.92 28.92 0 0 0 694 318.09000000000003" fill="#93a1a1"/><path d="M 636.17 347 A 28.92 28.92 0 0 1  665.0899999999999 318.08 L 636.17 347 A 28.92 28.92 0 0 0 665.0899999999999 318.08" fill="#a6abab"/><path d="M 665.08 347 A 28.92 28.92 0 0 1  694 318.08 L 665.08 347 A 28.92 28.92 0 0 0 694 318.08" fill="#f5ecee"/></g></svg>