<?xml version="1.0" standalone="no"?><svg xmlns:xlink="http://www.w3.org/1999/xlink" xmlns="http://www.w3.org/2000/svg" viewBox="0 0 1000 545.4542596519467" preserveAspectRatio="xMaxYMax slice"><g transform="scale(1.5719142929450913)"><rect x="0" y="0" width="694" height="347" fill="#fafafa"/><path d="M 347 57.83 A 57.83 57.83 0 0 1  404.83 115.66 L 347 57.83 A 57.83 57.83 0 0 0 404.83 115.66" fill="#fef6f8"/><path d="M 636.17 115.66 A 57.83 57.83 0 0 1  694 57.83 L 636.17 115.66 A 57.83 57.83 0 0 0 694 57.83" fill="#fafafa"/><path d="M 57.83 115.67 A 57.83 57.83 0 0 1  115.66 173.5 L 57.83 115.67 A 57.83 57.83 0 0 0 115.66 173.5" fill="#fdf7f8"/><rect x="231.33333333333334" y="115.66666666666667" width="57.833333333333336" height="57.833333333333336" fill="#fafafa"/><path d="M 289.17 115.67 A 57.83 57.83 0 0 1  347 173.5 L 289.17 115.67 A 57.83 57.83 0 0 0 347 173.5" fill="#fafafa"/><path d="M 404.83 173.5 A 57.83 57.83 0 0 1  462.65999999999997 115.67 L 404.83 173.5 A 57.83 57.83 0 0 0 462.65999999999997 115.67" fill="#c0d2d2"/><path d="M 462.67 115.67 A 57.83 57.83 0 0 1  520.5 173.5 L 462.67 115.67 A 57.83 57.83 0 0 0 520.5 173.5" fill="#c6d5d5"/><path d="M 0 173.5 A 57.83 57.83 0 0 1  57.83 231.32999999999998 L 0 173.5 A 57.83 57.83 0 0 0 57.83 231.32999999999998" fill="#fafafa"/><path d="M 57.83 173.5 A 57.83 57.83 0 0 1  115.66 231.32999999999998 L 57.83 173.5 A 57.83 57.83 0 0 0 115.66 231.32999999999998" fill="#fafafa"/><rect x="347" y="173.5" width="57.833333333333336" height="57.833333333333336" fill="#fafafa"/><path d="M 347 202.42000000000002 A 28.92 28.92 0 0 1  375.92 173.5 L 347 202.42000000000002 A 28.92 28.92 0 0 0 375.92 173.5" fill="#5c8c8c"/><path d="M 375.92 173.5 A 28.92 28.92 0 0 1  404.84000000000003 202.42000000000002 L 375.92 173.5 A 28.92 28.92 0 0 0 404.84000000000003 202.42000000000002" fill="#d0dcdc"/><path d="M 347 231.33999999999997 A 28.92 28.92 0 0 1  375.92 202.42 L 347 231.33999999999997 A 28.92 28.92 0 0 0 375.92 202.42" fill="#fbf9f9"/><rect x="520.5" y="173.5" width="57.833333333333336" height="57.833333333333336" fill="#fafafa"/><path d="M 520.5 173.5 A 28.92 28.92 0 0 1  549.42 202.42000000000002 L 520.5 173.5 A 28.92 28.92 0 0 0 549.42 202.42000000000002" fill="#fff5f7"/><path d="M 549.42 173.5 A 28.92 28.92 0 0 1  578.3399999999999 202.42000000000002 L 549.42 173.5 A 28.92 28.92 0 0 0 578.3399999999999 202.42000000000002" fill="#fdf7f8"/><path d="M 520.5 202.42 A 28.92 28.92 0 0 1  549.42 231.33999999999997 L 520.5 202.42 A 28.92 28.92 0 0 0 549.42 231.33999999999997" fill="#fdf7f8"/><path d="M 578.33 173.5 A 57.83 57.83 0 0 1  636.1600000000001 231.32999999999998 L 578.33 173.5 A 57.83 57.83 0 0 0 636.1600000000001 231.32999999999998" fill="#fcf8f9"/><rect x="636.1666666666667" y="173.5" width="57.833333333333336" height="57.833333333333336" fill="#fafafa"/><path d="M 636.17 173.5 A 28.92 28.92 0 0 1  665.0899999999999 202.42000000000002 L 636.17 173.5 A 28.92 28.92 0 0 0 665.0899999999999 202.42000000000002" fill="#fbf9f9"/><path d="M 665.08 202.42000000000002 A 28.92 28.92 0 0 1  694 173.5 L 665.08 202.42000000000002 A 28.92 28.92 0 0 0 694 173.5" fill="#639090"/><path d="M 636.17 231.33999999999997 A 28.92 28.92 0 0 1  665.0899999999999 202.42 L 636.17 231.33999999999997 A 28.92 28.92 0 0 0 665.0899999999999 202.42" fill="#fef6f8"/><path d="M 665.08 231.33999999999997 A 28.92 28.92 0 0 1  694 202.42 L 665.08 231.33999999999997 A 28.92 28.92 0 0 0 694 202.42" fill="#fdf7f8"/><rect x="0" y="231.33333333333334" width="57.833333333333336" height="57.833333333333336" fill="#fafafa"/><path d="M 0 231.33 A 28.92 28.92 0 0 1  28.92 260.25 L 0 231.33 A 28.92 28.92 0 0 0 28.92 260.25" fill="#497e7e"/><path d="M 28.92 231.33 A 28.92 28.92 0 0 1  57.84 260.25 L 28.92 231.33 A 28.92 28.92 0 0 0 57.84 260.25" fill="#fff5f7"/><path d="M 0 260.25 A 28.92 28.92 0 0 1  28.92 289.17 L 0 260.25 A 28.92 28.92 0 0 0 28.92 289.17" fill="#cedbdb"/><path d="M 28.92 260.25 A 28.92 28.92 0 0 1  57.84 289.17 L 28.92 260.25 A 28.92 28.92 0 0 0 57.84 289.17" fill="#fff5f7"/><path d="M 57.83 289.16 A 57.83 57.83 0 0 1  115.66 231.33 L 57.83 289.16 A 57.83 57.83 0 0 0 115.66 231.33" fill="#f9f9f9"/><rect x="115.66666666666667" y="231.33333333333334" width="57.833333333333336" height="57.833333333333336" fill="#fafafa"/><path d="M 115.67 231.33 A 28.92 28.92 0 0 1  144.59 260.25 L 115.67 231.33 A 28.92 28.92 0 0 0 144.59 260.25" fill="#618f8f"/><path d="M 115.67 289.17 A 28.92 28.92 0 0 1  144.59 260.25 L 115.67 289.17 A 28.92 28.92 0 0 0 144.59 260.25" fill="#97b5b5"/><path d="M 173.5 231.33 A 57.83 57.83 0 0 1  231.32999999999998 289.16 L 173.5 231.33 A 57.83 57.83 0 0 0 231.32999999999998 289.16" fill="#a1bcbc"/><rect x="231.33333333333334" y="231.33333333333334" width="57.833333333333336" height="57.833333333333336" fill="#fafafa"/><path d="M 231.33 260.25 A 28.92 28.92 0 0 1  260.25 231.33 L 231.33 260.25 A 28.92 28.92 0 0 0 260.25 231.33" fill="#d2dede"/><path d="M 260.25 231.33 A 28.92 28.92 0 0 1  289.17 260.25 L 260.25 231.33 A 28.92 28.92 0 0 0 289.17 260.25" fill="#fbf9fa"/><path d="M 231.33 260.25 A 28.92 28.92 0 0 1  260.25 289.17 L 231.33 260.25 A 28.92 28.92 0 0 0 260.25 289.17" fill="#8cadad"/><path d="M 260.25 289.17 A 28.92 28.92 0 0 1  289.17 260.25 L 260.25 289.17 A 28.92 28.92 0 0 0 289.17 260.25" fill="#fafafa"/><rect x="289.1666666666667" y="231.33333333333334" width="57.833333333333336" height="57.833333333333336" fill="#fafafa"/><path d="M 289.17 260.25 A 28.92 28.92 0 0 1  318.09000000000003 231.33 L 289.17 260.25 A 28.92 28.92 0 0 0 318.09000000000003 231.33" fill="#e4ebeb"/><path d="M 318.08 231.33 A 28.92 28.92 0 0 1  347 260.25 L 318.08 231.33 A 28.92 28.92 0 0 0 347 260.25" fill="#bdcfcf"/><path d="M 318.08 289.17 A 28.92 28.92 0 0 1  347 260.25 L 318.08 289.17 A 28.92 28.92 0 0 0 347 260.25" fill="#7fa4a4"/><path d="M 347 231.33 A 57.83 57.83 0 0 1  404.83 289.16 L 347 231.33 A 57.83 57.83 0 0 0 404.83 289.16" fill="#e1e9e9"/><rect x="404.83333333333337" y="231.33333333333334" width="57.833333333333336" height="57.833333333333336" fill="#fafafa"/><path d="M 404.83 260.25 A 28.92 28.92 0 0 1  433.75 231.33 L 404.83 260.25 A 28.92 28.92 0 0 0 433.75 231.33" fill="#d8e2e2"/><path d="M 433.75 231.33 A 28.92 28.92 0 0 1  462.67 260.25 L 433.75 231.33 A 28.92 28.92 0 0 0 462.67 260.25" fill="#fbf9f9"/><path d="M 404.83 260.25 A 28.92 28.92 0 0 1  433.75 289.17 L 404.83 260.25 A 28.92 28.92 0 0 0 433.75 289.17" fill="#5f8e8e"/><path d="M 433.75 289.17 A 28.92 28.92 0 0 1  462.67 260.25 L 433.75 289.17 A 28.92 28.92 0 0 0 462.67 260.25" fill="#b7cbcb"/><rect x="462.6666666666667" y="231.33333333333334" width="57.833333333333336" height="57.833333333333336" fill="#fafafa"/><path d="M 491.58 260.25 A 28.92 28.92 0 0 1  520.5 231.33 L 491.58 260.25 A 28.92 28.92 0 0 0 520.5 231.33" fill="#fef6f7"/><path d="M 462.67 289.17 A 28.92 28.92 0 0 1  491.59000000000003 260.25 L 462.67 289.17 A 28.92 28.92 0 0 0 491.59000000000003 260.25" fill="#6b9696"/><rect x="636.1666666666667" y="231.33333333333334" width="57.833333333333336" height="57.833333333333336" fill="#fafafa"/><path d="M 636.17 260.25 A 28.92 28.92 0 0 1  665.0899999999999 231.33 L 636.17 260.25 A 28.92 28.92 0 0 0 665.0899999999999 231.33" fill="#a1bcbc"/><path d="M 636.17 289.17 A 28.92 28.92 0 0 1  665.0899999999999 260.25 L 636.17 289.17 A 28.92 28.92 0 0 0 665.0899999999999 260.25" fill="#fef6f8"/><path d="M 0 289.17 A 57.83 57.83 0 0 1  57.83 347 L 0 289.17 A 57.83 57.83 0 0 0 57.83 347" fill="#fef6f8"/><rect x="57.833333333333336" y="289.1666666666667" width="57.833333333333336" height="57.833333333333336" fill="#fafafa"/><path d="M 57.83 289.17 A 28.92 28.92 0 0 1  86.75 318.09000000000003 L 57.83 289.17 A 28.92 28.92 0 0 0 86.75 318.09000000000003" fill="#608e8e"/><path d="M 86.75 318.09000000000003 A 28.92 28.92 0 0 1  115.67 289.17 L 86.75 318.09000000000003 A 28.92 28.92 0 0 0 115.67 289.17" fill="#4a7f7f"/><path d="M 57.83 318.08 A 28.92 28.92 0 0 1  86.75 347 L 57.83 318.08 A 28.92 28.92 0 0 0 86.75 347" fill="#fafafa"/><path d="M 86.75 318.08 A 28.92 28.92 0 0 1  115.67 347 L 86.75 318.08 A 28.92 28.92 0 0 0 115.67 347" fill="#eaefef"/><path d="M 115.67 289.17 A 57.83 57.83 0 0 1  173.5 347 L 115.67 289.17 A 57.83 57.83 0 0 0 173.5 347" fill="#cddada"/><path d="M 173.5 289.17 A 57.83 57.83 0 0 1  231.32999999999998 347 L 173.5 289.17 A 57.83 57.83 0 0 0 231.32999999999998 347" fill="#fcf8f9"/><path d="M 231.33 289.17 A 57.83 57.83 0 0 1  289.16 347 L 231.33 289.17 A 57.83 57.83 0 0 0 289.16 347" fill="#fff5f7"/><path d="M 289.17 289.17 A 57.83 57.83 0 0 1  347 347 L 289.17 289.17 A 57.83 57.83 0 0 0 347 347" fill="#fdf7f8"/><path d="M 347 347 A 57.83 57.83 0 0 1  404.83 289.17 L 347 347 A 57.83 57.83 0 0 0 404.83 289.17" fill="#4f8282"/><rect x="404.83333333333337" y="289.1666666666667" width="57.833333333333336" height="57.833333333333336" fill="#fafafa"/><path d="M 404.83 289.17 A 28.92 28.92 0 0 1  433.75 318.09000000000003 L 404.83 289.17 A 28.92 28.92 0 0 0 433.75 318.09000000000003" fill="#fdf7f8"/><path d="M 433.75 318.09000000000003 A 28.92 28.92 0 0 1  462.67 289.17 L 433.75 318.09000000000003 A 28.92 28.92 0 0 0 462.67 289.17" fill="#89abab"/><path d="M 404.83 318.08 A 28.92 28.92 0 0 1  433.75 347 L 404.83 318.08 A 28.92 28.92 0 0 0 433.75 347" fill="#fcf8f9"/><path d="M 433.75 347 A 28.92 28.92 0 0 1  462.67 318.08 L 433.75 347 A 28.92 28.92 0 0 0 462.67 318.08" fill="#588989"/><rect x="462.6666666666667" y="289.1666666666667" width="57.833333333333336" height="57.833333333333336" fill="#fafafa"/><path d="M 462.67 289.17 A 28.92 28.92 0 0 1  491.59000000000003 318.09000000000003 L 462.67 289.17 A 28.92 28.92 0 0 0 491.59000000000003 318.09000000000003" fill="#cad8d8"/><path d="M 491.58 318.09000000000003 A 28.92 28.92 0 0 1  520.5 289.17 L 491.58 318.09000000000003 A 28.92 28.92 0 0 0 520.5 289.17" fill="#fff5f7"/><path d="M 462.67 347 A 28.92 28.92 0 0 1  491.59000000000003 318.08 L 462.67 347 A 28.92 28.92 0 0 0 491.59000000000003 318.08" fill="#fdf7f8"/><path d="M 491.58 318.08 A 28.92 28.92 0 0 1  520.5 347 L 491.58 318.08 A 28.92 28.92 0 0 0 520.5 347" fill="#4e8282"/><path d="M 520.5 289.17 A 57.83 57.83 0 0 1  578.33 347 L 520.5 289.17 A 57.83 57.83 0 0 0 578.33 347" fill="#f9f9f9"/><path d="M 578.33 289.17 A 57.83 57.83 0 0 1  636.1600000000001 347 L 578.33 289.17 A 57.83 57.83 0 0 0 636.1600000000001 347" fill="#fff5f7"/><path d="M 636.17 289.17 A 57.83 57.83 0 0 1  694 347 L 636.17 289.17 A 57.83 57.83 0 0 0 694 347" fill="#e5ebeb"/></g></svg>