<?xml version="1.0" standalone="no"?><svg xmlns:xlink="http://www.w3.org/1999/xlink" xmlns="http://www.w3.org/2000/svg" viewBox="0 0 1000 545.4542596519467" preserveAspectRatio="xMaxYMax slice"><g transform="scale(1.5719142929450913)"><rect x="0" y="0" width="694" height="347" fill="#fcfcfc"/><path d="M 57.83 115.66 A 57.83 57.83 0 0 1  115.66 57.83 L 57.83 115.66 A 57.83 57.83 0 0 0 115.66 57.83" fill="#86a9a9"/><rect x="520.5" y="57.833333333333336" width="57.833333333333336" height="57.833333333333336" fill="#fcfcfc"/><path d="M 520.5 115.67 A 28.92 28.92 0 0 1  549.42 86.75 L 520.5 115.67 A 28.92 28.92 0 0 0 549.42 86.75" fill="#85a8a8"/><path d="M 549.42 86.75 A 28.92 28.92 0 0 1  578.3399999999999 115.67 L 549.42 86.75 A 28.92 28.92 0 0 0 578.3399999999999 115.67" fill="#fef8f9"/><path d="M 173.5 173.5 A 57.83 57.83 0 0 1  231.32999999999998 115.67 L 173.5 173.5 A 57.83 57.83 0 0 0 231.32999999999998 115.67" fill="#fdf9fa"/><path d="M 289.17 115.67 A 57.83 57.83 0 0 1  347 173.5 L 289.17 115.67 A 57.83 57.83 0 0 0 347 173.5" fill="#fdfafb"/><path d="M 404.83 115.67 A 57.83 57.83 0 0 1  462.65999999999997 173.5 L 404.83 115.67 A 57.83 57.83 0 0 0 462.65999999999997 173.5" fill="#8fafaf"/><path d="M 636.17 173.5 A 57.83 57.83 0 0 1  694 115.67 L 636.17 173.5 A 57.83 57.83 0 0 0 694 115.67" fill="#4a7f7f"/><rect x="0" y="173.5" width="57.833333333333336" height="57.833333333333336" fill="#fcfcfc"/><path d="M 0 202.42000000000002 A 28.92 28.92 0 0 1  28.92 173.5 L 0 202.42000000000002 A 28.92 28.92 0 0 0 28.92 173.5" fill="#dfe7e7"/><path d="M 28.92 202.42000000000002 A 28.92 28.92 0 0 1  57.84 173.5 L 28.92 202.42000000000002 A 28.92 28.92 0 0 0 57.84 173.5" fill="#c5d6d6"/><path d="M 115.67 173.5 A 57.83 57.83 0 0 1  173.5 231.32999999999998 L 115.67 173.5 A 57.83 57.83 0 0 0 173.5 231.32999999999998" fill="#83a7a7"/><rect x="231.33333333333334" y="173.5" width="57.833333333333336" height="57.833333333333336" fill="#fcfcfc"/><path d="M 231.33 231.33999999999997 A 28.92 28.92 0 0 1  260.25 202.42 L 231.33 231.33999999999997 A 28.92 28.92 0 0 0 260.25 202.42" fill="#7fa4a4"/><path d="M 260.25 202.42 A 28.92 28.92 0 0 1  289.17 231.33999999999997 L 260.25 202.42 A 28.92 28.92 0 0 0 289.17 231.33999999999997" fill="#fdfafb"/><path d="M 347 231.32999999999998 A 57.83 57.83 0 0 1  404.83 173.5 L 347 231.32999999999998 A 57.83 57.83 0 0 0 404.83 173.5" fill="#dfe8e8"/><rect x="404.83333333333337" y="173.5" width="57.833333333333336" height="57.833333333333336" fill="#fcfcfc"/><path d="M 404.83 202.42000000000002 A 28.92 28.92 0 0 1  433.75 173.5 L 404.83 202.42000000000002 A 28.92 28.92 0 0 0 433.75 173.5" fill="#fff5f7"/><path d="M 462.67 231.32999999999998 A 57.83 57.83 0 0 1  520.5 173.5 L 462.67 231.32999999999998 A 57.83 57.83 0 0 0 520.5 173.5" fill="#b3c8c8"/><path d="M 578.33 173.5 A 57.83 57.83 0 0 1  636.1600000000001 231.32999999999998 L 578.33 173.5 A 57.83 57.83 0 0 0 636.1600000000001 231.32999999999998" fill="#7da3a3"/><rect x="636.1666666666667" y="173.5" width="57.833333333333336" height="57.833333333333336" fill="#fcfcfc"/><path d="M 665.08 173.5 A 28.92 28.92 0 0 1  694 202.42000000000002 L 665.08 173.5 A 28.92 28.92 0 0 0 694 202.42000000000002" fill="#fef7f9"/><path d="M 636.17 231.33999999999997 A 28.92 28.92 0 0 1  665.0899999999999 202.42 L 636.17 231.33999999999997 A 28.92 28.92 0 0 0 665.0899999999999 202.42" fill="#e5ecec"/><path d="M 0 231.33 A 57.83 57.83 0 0 1  57.83 289.16 L 0 231.33 A 57.83 57.83 0 0 0 57.83 289.16" fill="#b0c6c6"/><path d="M 231.33 289.16 A 57.83 57.83 0 0 1  289.16 231.33 L 231.33 289.16 A 57.83 57.83 0 0 0 289.16 231.33" fill="#fef8f9"/><rect x="289.1666666666667" y="231.33333333333334" width="57.833333333333336" height="57.833333333333336" fill="#fcfcfc"/><path d="M 289.17 260.25 A 28.92 28.92 0 0 1  318.09000000000003 231.33 L 289.17 260.25 A 28.92 28.92 0 0 0 318.09000000000003 231.33" fill="#9cb9b9"/><path d="M 318.08 231.33 A 28.92 28.92 0 0 1  347 260.25 L 318.08 231.33 A 28.92 28.92 0 0 0 347 260.25" fill="#fef7f8"/><path d="M 289.17 289.17 A 28.92 28.92 0 0 1  318.09000000000003 260.25 L 289.17 289.17 A 28.92 28.92 0 0 0 318.09000000000003 260.25" fill="#578888"/><path d="M 318.08 260.25 A 28.92 28.92 0 0 1  347 289.17 L 318.08 260.25 A 28.92 28.92 0 0 0 347 289.17" fill="#b7cbcb"/><rect x="347" y="231.33333333333334" width="57.833333333333336" height="57.833333333333336" fill="#fcfcfc"/><path d="M 347 231.33 A 28.92 28.92 0 0 1  375.92 260.25 L 347 231.33 A 28.92 28.92 0 0 0 375.92 260.25" fill="#86a9a9"/><path d="M 375.92 231.33 A 28.92 28.92 0 0 1  404.84000000000003 260.25 L 375.92 231.33 A 28.92 28.92 0 0 0 404.84000000000003 260.25" fill="#fef8f9"/><path d="M 347 289.17 A 28.92 28.92 0 0 1  375.92 260.25 L 347 289.17 A 28.92 28.92 0 0 0 375.92 260.25" fill="#eaefef"/><path d="M 375.92 289.17 A 28.92 28.92 0 0 1  404.84000000000003 260.25 L 375.92 289.17 A 28.92 28.92 0 0 0 404.84000000000003 260.25" fill="#e3ebeb"/><rect x="404.83333333333337" y="231.33333333333334" width="57.833333333333336" height="57.833333333333336" fill="#fcfcfc"/><path d="M 404.83 231.33 A 28.92 28.92 0 0 1  433.75 260.25 L 404.83 231.33 A 28.92 28.92 0 0 0 433.75 260.25" fill="#fdfbfb"/><path d="M 433.75 260.25 A 28.92 28.92 0 0 1  462.67 231.33 L 433.75 260.25 A 28.92 28.92 0 0 0 462.67 231.33" fill="#e3eaea"/><path d="M 404.83 289.17 A 28.92 28.92 0 0 1  433.75 260.25 L 404.83 289.17 A 28.92 28.92 0 0 0 433.75 260.25" fill="#316d6d"/><rect x="462.6666666666667" y="231.33333333333334" width="57.833333333333336" height="57.833333333333336" fill="#fcfcfc"/><path d="M 462.67 231.33 A 28.92 28.92 0 0 1  491.59000000000003 260.25 L 462.67 231.33 A 28.92 28.92 0 0 0 491.59000000000003 260.25" fill="#fdfafb"/><path d="M 491.58 231.33 A 28.92 28.92 0 0 1  520.5 260.25 L 491.58 231.33 A 28.92 28.92 0 0 0 520.5 260.25" fill="#8daeae"/><path d="M 462.67 260.25 A 28.92 28.92 0 0 1  491.59000000000003 289.17 L 462.67 260.25 A 28.92 28.92 0 0 0 491.59000000000003 289.17" fill="#fef8f9"/><path d="M 491.58 260.25 A 28.92 28.92 0 0 1  520.5 289.17 L 491.58 260.25 A 28.92 28.92 0 0 0 520.5 289.17" fill="#cad9d9"/><path d="M 578.33 231.33 A 57.83 57.83 0 0 1  636.1600000000001 289.16 L 578.33 231.33 A 57.83 57.83 0 0 0 636.1600000000001 289.16" fill="#fdf9fa"/><rect x="636.1666666666667" y="231.33333333333334" width="57.833333333333336" height="57.833333333333336" fill="#fcfcfc"/><path d="M 665.08 231.33 A 28.92 28.92 0 0 1  694 260.25 L 665.08 231.33 A 28.92 28.92 0 0 0 694 260.25" fill="#fef8f9"/><path d="M 636.17 289.17 A 28.92 28.92 0 0 1  665.0899999999999 260.25 L 636.17 289.17 A 28.92 28.92 0 0 0 665.0899999999999 260.25" fill="#f6f8f8"/><path d="M 0 347 A 57.83 57.83 0 0 1  57.83 289.17 L 0 347 A 57.83 57.83 0 0 0 57.83 289.17" fill="#fef6f8"/><path d="M 57.83 289.17 A 57.83 57.83 0 0 1  115.66 347 L 57.83 289.17 A 57.83 57.83 0 0 0 115.66 347" fill="#fdfafa"/><rect x="115.66666666666667" y="289.1666666666667" width="57.833333333333336" height="57.833333333333336" fill="#fcfcfc"/><path d="M 115.67 289.17 A 28.92 28.92 0 0 1  144.59 318.09000000000003 L 115.67 289.17 A 28.92 28.92 0 0 0 144.59 318.09000000000003" fill="#fff6f8"/><path d="M 144.58 318.09000000000003 A 28.92 28.92 0 0 1  173.5 289.17 L 144.58 318.09000000000003 A 28.92 28.92 0 0 0 173.5 289.17" fill="#377171"/><path d="M 115.67 347 A 28.92 28.92 0 0 1  144.59 318.08 L 115.67 347 A 28.92 28.92 0 0 0 144.59 318.08" fill="#d1dede"/><path d="M 144.58 318.08 A 28.92 28.92 0 0 1  173.5 347 L 144.58 318.08 A 28.92 28.92 0 0 0 173.5 347" fill="#fcfcfc"/><path d="M 173.5 289.17 A 57.83 57.83 0 0 1  231.32999999999998 347 L 173.5 289.17 A 57.83 57.83 0 0 0 231.32999999999998 347" fill="#fdfafb"/><rect x="231.33333333333334" y="289.1666666666667" width="57.833333333333336" height="57.833333333333336" fill="#fcfcfc"/><path d="M 231.33 289.17 A 28.92 28.92 0 0 1  260.25 318.09000000000003 L 231.33 289.17 A 28.92 28.92 0 0 0 260.25 318.09000000000003" fill="#8eafaf"/><path d="M 260.25 289.17 A 28.92 28.92 0 0 1  289.17 318.09000000000003 L 260.25 289.17 A 28.92 28.92 0 0 0 289.17 318.09000000000003" fill="#427a7a"/><path d="M 231.33 318.08 A 28.92 28.92 0 0 1  260.25 347 L 231.33 318.08 A 28.92 28.92 0 0 0 260.25 347" fill="#7da3a3"/><path d="M 260.25 347 A 28.92 28.92 0 0 1  289.17 318.08 L 260.25 347 A 28.92 28.92 0 0 0 289.17 318.08" fill="#fef8f9"/><rect x="289.1666666666667" y="289.1666666666667" width="57.833333333333336" height="57.833333333333336" fill="#fcfcfc"/><path d="M 289.17 289.17 A 28.92 28.92 0 0 1  318.09000000000003 318.09000000000003 L 289.17 289.17 A 28.92 28.92 0 0 0 318.09000000000003 318.09000000000003" fill="#fdf9fa"/><path d="M 318.08 289.17 A 28.92 28.92 0 0 1  347 318.09000000000003 L 318.08 289.17 A 28.92 28.92 0 0 0 347 318.09000000000003" fill="#fef7f9"/><path d="M 289.17 347 A 28.92 28.92 0 0 1  318.09000000000003 318.08 L 289.17 347 A 28.92 28.92 0 0 0 318.09000000000003 318.08" fill="#fdfafa"/><path d="M 318.08 318.08 A 28.92 28.92 0 0 1  347 347 L 318.08 318.08 A 28.92 28.92 0 0 0 347 347" fill="#fcfbfc"/><rect x="347" y="289.1666666666667" width="57.833333333333336" height="57.833333333333336" fill="#fcfcfc"/><path d="M 347 318.09000000000003 A 28.92 28.92 0 0 1  375.92 289.17 L 347 318.09000000000003 A 28.92 28.92 0 0 0 375.92 289.17" fill="#80a5a5"/><path d="M 375.92 318.09000000000003 A 28.92 28.92 0 0 1  404.84000000000003 289.17 L 375.92 318.09000000000003 A 28.92 28.92 0 0 0 404.84000000000003 289.17" fill="#fdf9fa"/><path d="M 347 318.08 A 28.92 28.92 0 0 1  375.92 347 L 347 318.08 A 28.92 28.92 0 0 0 375.92 347" fill="#d2dede"/><path d="M 375.92 318.08 A 28.92 28.92 0 0 1  404.84000000000003 347 L 375.92 318.08 A 28.92 28.92 0 0 0 404.84000000000003 347" fill="#fff6f8"/><rect x="404.83333333333337" y="289.1666666666667" width="57.833333333333336" height="57.833333333333336" fill="#fcfcfc"/><path d="M 404.83 289.17 A 28.92 28.92 0 0 1  433.75 318.09000000000003 L 404.83 289.17 A 28.92 28.92 0 0 0 433.75 318.09000000000003" fill="#fef8f9"/><path d="M 433.75 318.09000000000003 A 28.92 28.92 0 0 1  462.67 289.17 L 433.75 318.09000000000003 A 28.92 28.92 0 0 0 462.67 289.17" fill="#fdfafb"/><path d="M 404.83 347 A 28.92 28.92 0 0 1  433.75 318.08 L 404.83 347 A 28.92 28.92 0 0 0 433.75 318.08" fill="#84a8a8"/><path d="M 433.75 347 A 28.92 28.92 0 0 1  462.67 318.08 L 433.75 347 A 28.92 28.92 0 0 0 462.67 318.08" fill="#3c7575"/><path d="M 462.67 347 A 57.83 57.83 0 0 1  520.5 289.17 L 462.67 347 A 57.83 57.83 0 0 0 520.5 289.17" fill="#fef8f9"/><rect x="520.5" y="289.1666666666667" width="57.833333333333336" height="57.833333333333336" fill="#fcfcfc"/><path d="M 520.5 318.09000000000003 A 28.92 28.92 0 0 1  549.42 289.17 L 520.5 318.09000000000003 A 28.92 28.92 0 0 0 549.42 289.17" fill="#fff5f7"/><path d="M 549.42 318.09000000000003 A 28.92 28.92 0 0 1  578.3399999999999 289.17 L 549.42 318.09000000000003 A 28.92 28.92 0 0 0 578.3399999999999 289.17" fill="#fef7f8"/><path d="M 520.5 347 A 28.92 28.92 0 0 1  549.42 318.08 L 520.5 347 A 28.92 28.92 0 0 0 549.42 318.08" fill="#4b8080"/><path d="M 549.42 318.08 A 28.92 28.92 0 0 1  578.3399999999999 347 L 549.42 318.08 A 28.92 28.92 0 0 0 578.3399999999999 347" fill="#618f8f"/><rect x="578.3333333333334" y="289.1666666666667" width="57.833333333333336" height="57.833333333333336" fill="#fcfcfc"/><path d="M 578.33 289.17 A 28.92 28.92 0 0 1  607.25 318.09000000000003 L 578.33 289.17 A 28.92 28.92 0 0 0 607.25 318.09000000000003" fill="#377171"/><path d="M 607.25 289.17 A 28.92 28.92 0 0 1  636.17 318.09000000000003 L 607.25 289.17 A 28.92 28.92 0 0 0 636.17 318.09000000000003" fill="#e0e8e8"/><path d="M 578.33 347 A 28.92 28.92 0 0 1  607.25 318.08 L 578.33 347 A 28.92 28.92 0 0 0 607.25 318.08" fill="#fef7f9"/><path d="M 607.25 347 A 28.92 28.92 0 0 1  636.17 318.08 L 607.25 347 A 28.92 28.92 0 0 0 636.17 318.08" fill="#fef7f9"/><rect x="636.1666666666667" y="289.1666666666667" width="57.833333333333336" height="57.833333333333336" fill="#fcfcfc"/><path d="M 636.17 318.09000000000003 A 28.92 28.92 0 0 1  665.0899999999999 289.17 L 636.17 318.09000000000003 A 28.92 28.92 0 0 0 665.0899999999999 289.17" fill="#5d8c8c"/><path d="M 665.08 289.17 A 28.92 28.92 0 0 1  694 318.09000000000003 L 665.08 289.17 A 28.92 28.92 0 0 0 694 318.09000000000003" fill="#98b6b6"/><path d="M 636.17 318.08 A 28.92 28.92 0 0 1  665.0899999999999 347 L 636.17 318.08 A 28.92 28.92 0 0 0 665.0899999999999 347" fill="#9db9b9"/><path d="M 665.08 347 A 28.92 28.92 0 0 1  694 318.08 L 665.08 347 A 28.92 28.92 0 0 0 694 318.08" fill="#fff5f7"/></g></svg>