<?xml version="1.0" standalone="no"?><svg xmlns:xlink="http://www.w3.org/1999/xlink" xmlns="http://www.w3.org/2000/svg" viewBox="0 0 1000 545.4542596519467" preserveAspectRatio="xMaxYMax slice"><g transform="scale(1.5719142929450913)"><rect x="0" y="0" width="694" height="347" fill="#f2f2f2"/><rect x="0" y="57.833333333333336" width="57.833333333333336" height="57.833333333333336" fill="#f2f2f2"/><path d="M 0 86.75 A 28.92 28.92 0 0 1  28.92 115.67 L 0 86.75 A 28.92 28.92 0 0 0 28.92 115.67" fill="#c3d2d2"/><path d="M 28.92 86.75 A 28.92 28.92 0 0 1  57.84 115.67 L 28.92 86.75 A 28.92 28.92 0 0 0 57.84 115.67" fill="#f3f2f2"/><path d="M 173.5 115.66 A 57.83 57.83 0 0 1  231.32999999999998 57.83 L 173.5 115.66 A 57.83 57.83 0 0 0 231.32999999999998 57.83" fill="#689393"/><rect x="115.66666666666667" y="115.66666666666667" width="57.833333333333336" height="57.833333333333336" fill="#f2f2f2"/><path d="M 115.67 115.67 A 28.92 28.92 0 0 1  144.59 144.59 L 115.67 115.67 A 28.92 28.92 0 0 0 144.59 144.59" fill="#417878"/><rect x="347" y="115.66666666666667" width="57.833333333333336" height="57.833333333333336" fill="#f2f2f2"/><path d="M 375.92 144.58 A 28.92 28.92 0 0 1  404.84000000000003 173.5 L 375.92 144.58 A 28.92 28.92 0 0 0 404.84000000000003 173.5" fill="#f4f2f3"/><path d="M 520.5 173.5 A 57.83 57.83 0 0 1  578.33 115.67 L 520.5 173.5 A 57.83 57.83 0 0 0 578.33 115.67" fill="#faf4f5"/><rect x="57.833333333333336" y="173.5" width="57.833333333333336" height="57.833333333333336" fill="#f2f2f2"/><path d="M 57.83 202.42000000000002 A 28.92 28.92 0 0 1  86.75 173.5 L 57.83 202.42000000000002 A 28.92 28.92 0 0 0 86.75 173.5" fill="#fbf4f5"/><path d="M 173.5 231.32999999999998 A 57.83 57.83 0 0 1  231.32999999999998 173.5 L 173.5 231.32999999999998 A 57.83 57.83 0 0 0 231.32999999999998 173.5" fill="#f5f3f3"/><path d="M 347 173.5 A 57.83 57.83 0 0 1  404.83 231.32999999999998 L 347 173.5 A 57.83 57.83 0 0 0 404.83 231.32999999999998" fill="#d0dada"/><path d="M 404.83 173.5 A 57.83 57.83 0 0 1  462.65999999999997 231.32999999999998 L 404.83 173.5 A 57.83 57.83 0 0 0 462.65999999999997 231.32999999999998" fill="#83a5a5"/><path d="M 520.5 231.32999999999998 A 57.83 57.83 0 0 1  578.33 173.5 L 520.5 231.32999999999998 A 57.83 57.83 0 0 0 578.33 173.5" fill="#f2f2f2"/><path d="M 636.17 173.5 A 57.83 57.83 0 0 1  694 231.32999999999998 L 636.17 173.5 A 57.83 57.83 0 0 0 694 231.32999999999998" fill="#7ea2a2"/><path d="M 0 231.33 A 57.83 57.83 0 0 1  57.83 289.16 L 0 231.33 A 57.83 57.83 0 0 0 57.83 289.16" fill="#d0dbdb"/><path d="M 57.83 231.33 A 57.83 57.83 0 0 1  115.66 289.16 L 57.83 231.33 A 57.83 57.83 0 0 0 115.66 289.16" fill="#f4f3f3"/><rect x="115.66666666666667" y="231.33333333333334" width="57.833333333333336" height="57.833333333333336" fill="#f2f2f2"/><path d="M 115.67 231.33 A 28.92 28.92 0 0 1  144.59 260.25 L 115.67 231.33 A 28.92 28.92 0 0 0 144.59 260.25" fill="#fcf4f6"/><path d="M 144.58 260.25 A 28.92 28.92 0 0 1  173.5 231.33 L 144.58 260.25 A 28.92 28.92 0 0 0 173.5 231.33" fill="#fdf5f6"/><path d="M 144.58 289.17 A 28.92 28.92 0 0 1  173.5 260.25 L 144.58 289.17 A 28.92 28.92 0 0 0 173.5 260.25" fill="#779e9e"/><rect x="231.33333333333334" y="231.33333333333334" width="57.833333333333336" height="57.833333333333336" fill="#f2f2f2"/><path d="M 260.25 260.25 A 28.92 28.92 0 0 1  289.17 231.33 L 260.25 260.25 A 28.92 28.92 0 0 0 289.17 231.33" fill="#fbf4f6"/><path d="M 231.33 260.25 A 28.92 28.92 0 0 1  260.25 289.17 L 231.33 260.25 A 28.92 28.92 0 0 0 260.25 289.17" fill="#80a4a4"/><path d="M 260.25 289.17 A 28.92 28.92 0 0 1  289.17 260.25 L 260.25 289.17 A 28.92 28.92 0 0 0 289.17 260.25" fill="#fdf4f6"/><rect x="289.1666666666667" y="231.33333333333334" width="57.833333333333336" height="57.833333333333336" fill="#f2f2f2"/><path d="M 289.17 231.33 A 28.92 28.92 0 0 1  318.09000000000003 260.25 L 289.17 231.33 A 28.92 28.92 0 0 0 318.09000000000003 260.25" fill="#c5d3d3"/><path d="M 318.08 260.25 A 28.92 28.92 0 0 1  347 231.33 L 318.08 260.25 A 28.92 28.92 0 0 0 347 231.33" fill="#f2f2f2"/><rect x="347" y="231.33333333333334" width="57.833333333333336" height="57.833333333333336" fill="#f2f2f2"/><path d="M 347 231.33 A 28.92 28.92 0 0 1  375.92 260.25 L 347 231.33 A 28.92 28.92 0 0 0 375.92 260.25" fill="#f6f3f4"/><path d="M 347 260.25 A 28.92 28.92 0 0 1  375.92 289.17 L 347 260.25 A 28.92 28.92 0 0 0 375.92 289.17" fill="#fff5f7"/><path d="M 375.92 260.25 A 28.92 28.92 0 0 1  404.84000000000003 289.17 L 375.92 260.25 A 28.92 28.92 0 0 0 404.84000000000003 289.17" fill="#c5d3d3"/><path d="M 462.67 289.16 A 57.83 57.83 0 0 1  520.5 231.33 L 462.67 289.16 A 57.83 57.83 0 0 0 520.5 231.33" fill="#fef5f7"/><path d="M 520.5 289.16 A 57.83 57.83 0 0 1  578.33 231.33 L 520.5 289.16 A 57.83 57.83 0 0 0 578.33 231.33" fill="#d2dcdc"/><rect x="636.1666666666667" y="231.33333333333334" width="57.833333333333336" height="57.833333333333336" fill="#f2f2f2"/><path d="M 636.17 260.25 A 28.92 28.92 0 0 1  665.0899999999999 231.33 L 636.17 260.25 A 28.92 28.92 0 0 0 665.0899999999999 231.33" fill="#f5f3f3"/><path d="M 665.08 260.25 A 28.92 28.92 0 0 1  694 231.33 L 665.08 260.25 A 28.92 28.92 0 0 0 694 231.33" fill="#dde4e4"/><path d="M 636.17 289.17 A 28.92 28.92 0 0 1  665.0899999999999 260.25 L 636.17 289.17 A 28.92 28.92 0 0 0 665.0899999999999 260.25" fill="#568787"/><path d="M 665.08 289.17 A 28.92 28.92 0 0 1  694 260.25 L 665.08 289.17 A 28.92 28.92 0 0 0 694 260.25" fill="#f9f4f5"/><path d="M 0 289.17 A 57.83 57.83 0 0 1  57.83 347 L 0 289.17 A 57.83 57.83 0 0 0 57.83 347" fill="#d2dcdc"/><rect x="57.833333333333336" y="289.1666666666667" width="57.833333333333336" height="57.833333333333336" fill="#f2f2f2"/><path d="M 57.83 289.17 A 28.92 28.92 0 0 1  86.75 318.09000000000003 L 57.83 289.17 A 28.92 28.92 0 0 0 86.75 318.09000000000003" fill="#fcf4f6"/><path d="M 86.75 289.17 A 28.92 28.92 0 0 1  115.67 318.09000000000003 L 86.75 289.17 A 28.92 28.92 0 0 0 115.67 318.09000000000003" fill="#f7f3f4"/><path d="M 57.83 318.08 A 28.92 28.92 0 0 1  86.75 347 L 57.83 318.08 A 28.92 28.92 0 0 0 86.75 347" fill="#bfcfcf"/><path d="M 86.75 318.08 A 28.92 28.92 0 0 1  115.67 347 L 86.75 318.08 A 28.92 28.92 0 0 0 115.67 347" fill="#f8f3f4"/><rect x="115.66666666666667" y="289.1666666666667" width="57.833333333333336" height="57.833333333333336" fill="#f2f2f2"/><path d="M 115.67 289.17 A 28.92 28.92 0 0 1  144.59 318.09000000000003 L 115.67 289.17 A 28.92 28.92 0 0 0 144.59 318.09000000000003" fill="#aec3c3"/><path d="M 144.58 289.17 A 28.92 28.92 0 0 1  173.5 318.09000000000003 L 144.58 289.17 A 28.92 28.92 0 0 0 173.5 318.09000000000003" fill="#fef5f7"/><path d="M 115.67 318.08 A 28.92 28.92 0 0 1  144.59 347 L 115.67 318.08 A 28.92 28.92 0 0 0 144.59 347" fill="#fdf4f6"/><path d="M 144.58 347 A 28.92 28.92 0 0 1  173.5 318.08 L 144.58 347 A 28.92 28.92 0 0 0 173.5 318.08" fill="#f9f4f5"/><rect x="173.5" y="289.1666666666667" width="57.833333333333336" height="57.833333333333336" fill="#f2f2f2"/><path d="M 173.5 318.09000000000003 A 28.92 28.92 0 0 1  202.42000000000002 289.17 L 173.5 318.09000000000003 A 28.92 28.92 0 0 0 202.42000000000002 289.17" fill="#dae1e1"/><path d="M 202.42 289.17 A 28.92 28.92 0 0 1  231.33999999999997 318.09000000000003 L 202.42 289.17 A 28.92 28.92 0 0 0 231.33999999999997 318.09000000000003" fill="#fcf4f6"/><path d="M 173.5 318.08 A 28.92 28.92 0 0 1  202.42000000000002 347 L 173.5 318.08 A 28.92 28.92 0 0 0 202.42000000000002 347" fill="#ccd8d8"/><path d="M 202.42 318.08 A 28.92 28.92 0 0 1  231.33999999999997 347 L 202.42 318.08 A 28.92 28.92 0 0 0 231.33999999999997 347" fill="#f5f3f3"/><path d="M 231.33 289.17 A 57.83 57.83 0 0 1  289.16 347 L 231.33 289.17 A 57.83 57.83 0 0 0 289.16 347" fill="#fef5f7"/><path d="M 289.17 289.17 A 57.83 57.83 0 0 1  347 347 L 289.17 289.17 A 57.83 57.83 0 0 0 347 347" fill="#f9f4f5"/><path d="M 347 289.17 A 57.83 57.83 0 0 1  404.83 347 L 347 289.17 A 57.83 57.83 0 0 0 404.83 347" fill="#417979"/><rect x="404.83333333333337" y="289.1666666666667" width="57.833333333333336" height="57.833333333333336" fill="#f2f2f2"/><path d="M 404.83 318.09000000000003 A 28.92 28.92 0 0 1  433.75 289.17 L 404.83 318.09000000000003 A 28.92 28.92 0 0 0 433.75 289.17" fill="#f6f3f3"/><path d="M 433.75 289.17 A 28.92 28.92 0 0 1  462.67 318.09000000000003 L 433.75 289.17 A 28.92 28.92 0 0 0 462.67 318.09000000000003" fill="#88a9a9"/><path d="M 404.83 347 A 28.92 28.92 0 0 1  433.75 318.08 L 404.83 347 A 28.92 28.92 0 0 0 433.75 318.08" fill="#f6f3f4"/><path d="M 433.75 318.08 A 28.92 28.92 0 0 1  462.67 347 L 433.75 318.08 A 28.92 28.92 0 0 0 462.67 347" fill="#f2f2f2"/><path d="M 462.67 289.17 A 57.83 57.83 0 0 1  520.5 347 L 462.67 289.17 A 57.83 57.83 0 0 0 520.5 347" fill="#faf4f5"/><rect x="520.5" y="289.1666666666667" width="57.833333333333336" height="57.833333333333336" fill="#f2f2f2"/><path d="M 520.5 318.09000000000003 A 28.92 28.92 0 0 1  549.42 289.17 L 520.5 318.09000000000003 A 28.92 28.92 0 0 0 549.42 289.17" fill="#fdf5f6"/><path d="M 549.42 289.17 A 28.92 28.92 0 0 1  578.3399999999999 318.09000000000003 L 549.42 289.17 A 28.92 28.92 0 0 0 578.3399999999999 318.09000000000003" fill="#f3f2f2"/><path d="M 520.5 347 A 28.92 28.92 0 0 1  549.42 318.08 L 520.5 347 A 28.92 28.92 0 0 0 549.42 318.08" fill="#fbf4f5"/><path d="M 549.42 347 A 28.92 28.92 0 0 1  578.3399999999999 318.08 L 549.42 347 A 28.92 28.92 0 0 0 578.3399999999999 318.08" fill="#fdf5f6"/><path d="M 578.33 289.17 A 57.83 57.83 0 0 1  636.1600000000001 347 L 578.33 289.17 A 57.83 57.83 0 0 0 636.1600000000001 347" fill="#4b7f7f"/><path d="M 636.17 347 A 57.83 57.83 0 0 1  694 289.17 L 636.17 347 A 57.83 57.83 0 0 0 694 289.17" fill="#fcf4f6"/></g></svg>