<?xml version="1.0" standalone="no"?><svg xmlns:xlink="http://www.w3.org/1999/xlink" xmlns="http://www.w3.org/2000/svg" viewBox="0 0 1000 545.4542596519467" preserveAspectRatio="xMaxYMax slice"><g transform="scale(1.5719142929450913)"><rect x="0" y="0" width="694" height="347" fill="#fcfcfc"/><circle cx="28.915" cy="28.915" r="5.785" fill="#2f6c6c"/><circle cx="86.755" cy="28.915" r="5.785" fill="#2f6c6c"/><circle cx="144.585" cy="28.915" r="5.785" fill="#fff5f7"/><circle cx="202.415" cy="28.915" r="5.785" fill="#fff5f7"/><circle cx="260.255" cy="28.915" r="5.785" fill="#2f6c6c"/><circle cx="318.08500000000004" cy="28.915" r="5.785" fill="#fff5f7"/><circle cx="375.915" cy="28.915" r="5.785" fill="#fff5f7"/><circle cx="433.75500000000005" cy="28.915" r="5.785" fill="#fff5f7"/><circle cx="491.58500000000004" cy="28.915" r="5.785" fill="#2f6c6c"/><circle cx="549.415" cy="28.915" r="5.785" fill="#2f6c6c"/><circle cx="607.255" cy="28.915" r="5.785" fill="#2f6c6c"/><circle cx="665.0849999999999" cy="28.915" r="5.785" fill="#2f6c6c"/><circle cx="28.915" cy="86.755" r="5.785" fill="#fff5f7"/><circle cx="86.75500000000001" cy="86.75500000000001" r="7.635" fill="#fff5f7"/><circle cx="144.58499999999998" cy="86.755" r="9.485" fill="#fff5f7"/><circle cx="202.41500000000002" cy="86.745" r="11.335" fill="#2f6c6c"/><circle cx="260.245" cy="86.745" r="13.185" fill="#fff5f7"/><circle cx="318.08500000000004" cy="86.74499999999999" r="15.035" fill="#2f6c6c"/><circle cx="375.915" cy="86.74499999999999" r="15.035" fill="#fff5f7"/><circle cx="433.745" cy="86.74499999999999" r="15.035" fill="#fff5f7"/><circle cx="491.585" cy="86.745" r="13.185" fill="#2f6c6c"/><circle cx="549.4150000000001" cy="86.745" r="11.335" fill="#fff5f7"/><circle cx="607.255" cy="86.755" r="9.485" fill="#fff5f7"/><circle cx="665.085" cy="86.75500000000001" r="7.635" fill="#2f6c6c"/><circle cx="28.915" cy="144.585" r="5.785" fill="#2f6c6c"/><circle cx="86.755" cy="144.58499999999998" r="9.485" fill="#2f6c6c"/><circle cx="144.585" cy="144.585" r="13.185" fill="#2f6c6c"/><circle cx="202.415" cy="144.585" r="16.885" fill="#2f6c6c"/><circle cx="260.25" cy="144.57999999999998" r="20.59" fill="#2f6c6c"/><circle cx="318.08000000000004" cy="144.58" r="24.29" fill="#fff5f7"/><circle cx="375.92" cy="144.58" r="24.29" fill="#2f6c6c"/><circle cx="433.75" cy="144.58" r="24.29" fill="#2f6c6c"/><circle cx="491.58" cy="144.57999999999998" r="20.59" fill="#2f6c6c"/><circle cx="549.415" cy="144.585" r="16.885" fill="#2f6c6c"/><circle cx="607.2449999999999" cy="144.585" r="13.185" fill="#fff5f7"/><circle cx="665.085" cy="144.58499999999998" r="9.485" fill="#fff5f7"/><circle cx="28.915" cy="202.415" r="5.785" fill="#fff5f7"/><circle cx="86.75" cy="202.42" r="10.41" fill="#fff5f7"/><circle cx="144.585" cy="202.415" r="15.035" fill="#2f6c6c"/><circle cx="202.415" cy="202.415" r="19.665" fill="#fff5f7"/><circle cx="260.25" cy="202.42" r="24.29" fill="#fff5f7"/><circle cx="318.08500000000004" cy="202.415" r="28.915" fill="#2f6c6c"/><circle cx="375.915" cy="202.415" r="28.915" fill="#fff5f7"/><circle cx="433.745" cy="202.415" r="28.915" fill="#fff5f7"/><circle cx="491.58000000000004" cy="202.42" r="24.29" fill="#2f6c6c"/><circle cx="549.415" cy="202.415" r="19.665" fill="#fff5f7"/><circle cx="607.245" cy="202.415" r="15.035" fill="#2f6c6c"/><circle cx="665.0799999999999" cy="202.42" r="10.41" fill="#2f6c6c"/><circle cx="28.915" cy="260.255" r="5.785" fill="#2f6c6c"/><circle cx="86.755" cy="260.255" r="9.485" fill="#2f6c6c"/><circle cx="144.585" cy="260.245" r="13.185" fill="#fff5f7"/><circle cx="202.415" cy="260.245" r="16.885" fill="#2f6c6c"/><circle cx="260.25" cy="260.25" r="20.59" fill="#fff5f7"/><circle cx="318.08000000000004" cy="260.25" r="24.29" fill="#fff5f7"/><circle cx="375.92" cy="260.25" r="24.29" fill="#2f6c6c"/><circle cx="433.75" cy="260.25" r="24.29" fill="#fff5f7"/><circle cx="491.58" cy="260.25" r="20.59" fill="#2f6c6c"/><circle cx="549.415" cy="260.245" r="16.885" fill="#2f6c6c"/><circle cx="607.2449999999999" cy="260.245" r="13.185" fill="#fff5f7"/><circle cx="665.085" cy="260.255" r="9.485" fill="#2f6c6c"/><circle cx="28.915" cy="318.08500000000004" r="5.785" fill="#fff5f7"/><circle cx="86.75500000000001" cy="318.085" r="7.635" fill="#2f6c6c"/><circle cx="144.58499999999998" cy="318.08500000000004" r="9.485" fill="#2f6c6c"/><circle cx="202.41500000000002" cy="318.085" r="11.335" fill="#fff5f7"/><circle cx="260.245" cy="318.085" r="13.185" fill="#2f6c6c"/><circle cx="318.08500000000004" cy="318.08500000000004" r="15.035" fill="#fff5f7"/><circle cx="375.915" cy="318.08500000000004" r="15.035" fill="#2f6c6c"/><circle cx="433.745" cy="318.08500000000004" r="15.035" fill="#2f6c6c"/><circle cx="491.585" cy="318.085" r="13.185" fill="#fff5f7"/><circle cx="549.4150000000001" cy="318.085" r="11.335" fill="#2f6c6c"/><circle cx="607.255" cy="318.08500000000004" r="9.485" fill="#fff5f7"/><circle cx="665.085" cy="318.085" r="7.635" fill="#2f6c6c"/></g></svg>